<svg width="142" height="24" viewBox="0 0 142 24" fill="none" xmlns="http://www.w3.org/2000/svg">
<g clip-path="url(#clip0_276_1491)">
<path d="M-0.000213623 12.1089C-0.000213623 5.45433 3.6044 1.41797 9.50286 1.41797C13.9813 1.41797 17.5859 4.14524 18.2413 8.18161C18.3506 8.61797 18.0229 8.94524 17.5859 8.94524H14.7459C14.4182 8.94524 14.1998 8.72706 14.0906 8.39979C13.5444 6.32706 11.7967 5.01797 9.50286 5.01797C6.33517 5.01797 4.36902 7.74524 4.36902 12.1089C4.36902 16.4725 6.33517 19.1998 9.61209 19.1998C11.9059 19.1998 13.5444 17.9998 14.1998 16.0362C14.309 15.7089 14.5275 15.4907 14.8552 15.4907H17.6952C18.1321 15.4907 18.4598 15.9271 18.3506 16.2543C17.6952 20.1816 14.1998 22.7998 9.61209 22.7998C3.6044 22.7998 -0.000213623 18.6543 -0.000213623 12.1089Z" fill="white"/>
<path d="M26.5426 22.2546H23.3749C23.0472 22.2546 22.8287 22.0364 22.8287 21.7092V2.83643C22.8287 2.40007 23.2656 1.9637 23.7026 1.9637H31.3487C35.8272 1.9637 38.5579 4.47279 38.5579 8.40007C38.5579 10.691 37.4656 12.7637 35.6087 13.8546C35.1718 14.0728 35.0626 14.6182 35.281 14.9455L38.6672 21.3819C38.8856 21.7092 38.558 22.1455 38.2303 22.1455H34.6256C34.4072 22.1455 34.1887 22.0364 34.0795 21.8182L30.9118 15.2728C30.8026 14.9455 30.4749 14.8364 30.1472 14.8364H27.6349C27.3072 14.8364 27.0887 15.0546 27.0887 15.3819V21.8182C27.1979 22.0364 26.8703 22.2546 26.5426 22.2546ZM27.1979 11.1273C27.1979 11.4546 27.4164 11.6728 27.7441 11.6728H31.021C33.2056 11.6728 34.4072 10.4728 34.4072 8.50916C34.4072 6.54552 33.0964 5.34552 31.021 5.34552H27.8533C27.5256 5.34552 27.3072 5.5637 27.3072 5.89098V11.1273H27.1979Z" fill="white"/>
<path d="M56.2535 22.2546H44.2381C43.8012 22.2546 43.4735 21.9273 43.4735 21.491V2.72734C43.4735 2.29098 43.8012 1.9637 44.2381 1.9637H56.2535C56.6904 1.9637 57.0181 2.29098 57.0181 2.72734V4.80007C57.0181 5.23643 56.6904 5.5637 56.2535 5.5637H48.2796C47.9519 5.5637 47.7335 5.78188 47.7335 6.10916V9.81825C47.7335 10.1455 47.9519 10.3637 48.2796 10.3637H55.7073C56.1442 10.3637 56.4719 10.691 56.4719 11.1273V12.9819C56.4719 13.4182 56.1442 13.7455 55.7073 13.7455H48.2796C47.9519 13.7455 47.7335 13.9637 47.7335 14.291V18.4364C47.7335 18.7637 47.9519 18.9819 48.2796 18.9819H56.2535C56.6904 18.9819 57.0181 19.3092 57.0181 19.7455V21.8182C57.0181 21.9273 56.6904 22.2546 56.2535 22.2546Z" fill="white"/>
<path d="M73.1844 17.3455H66.9582C66.6305 17.3455 66.412 17.5637 66.3028 17.7819L65.1013 21.8182C64.992 22.1455 64.7736 22.2546 64.4459 22.2546H61.6059C61.169 22.2546 60.8413 21.8182 60.9505 21.3819L67.5043 2.40007C67.6136 2.18189 67.832 1.9637 68.1597 1.9637H72.2013C72.529 1.9637 72.7474 2.18189 72.8567 2.40007L79.4105 21.3819C79.5197 21.8182 79.192 22.2546 78.7551 22.2546H75.5874C75.2597 22.2546 75.0413 22.0364 74.932 21.8182L73.7305 17.7819C73.7305 17.5637 73.4028 17.3455 73.1844 17.3455ZM67.832 14.1819H72.3105C72.529 14.1819 72.6382 13.9637 72.6382 13.7455L70.2351 6.10916H70.0167L67.6136 13.7455C67.5044 13.9637 67.6136 14.1819 67.832 14.1819Z" fill="white"/>
<path d="M86.2923 21.4914V6.00049C86.2923 5.67322 86.0738 5.45504 85.7461 5.45504H80.94C80.503 5.45504 80.0661 5.12777 80.0661 4.58231V2.72777C80.0661 2.2914 80.3938 1.85504 80.94 1.85504H95.7953C96.2322 1.85504 96.6692 2.18231 96.6692 2.72777V4.58231C96.6692 5.01867 96.3415 5.45504 95.7953 5.45504H90.9892C90.6615 5.45504 90.443 5.67322 90.443 6.00049V21.6005C90.443 22.0369 90.1153 22.3641 89.6784 22.3641H86.9476C86.6199 22.255 86.2923 21.9278 86.2923 21.4914Z" fill="white"/>
<path d="M113.381 22.2546H101.366C100.929 22.2546 100.601 21.9273 100.601 21.491V2.72734C100.601 2.29098 100.929 1.9637 101.366 1.9637H113.381C113.818 1.9637 114.146 2.29098 114.146 2.72734V4.80007C114.146 5.23643 113.818 5.5637 113.381 5.5637H105.407C105.08 5.5637 104.861 5.78188 104.861 6.10916V9.81825C104.861 10.1455 105.08 10.3637 105.407 10.3637H112.835C113.272 10.3637 113.6 10.691 113.6 11.1273V12.9819C113.6 13.4182 113.272 13.7455 112.835 13.7455H105.407C105.08 13.7455 104.861 13.9637 104.861 14.291V18.4364C104.861 18.7637 105.08 18.9819 105.407 18.9819H113.381C113.818 18.9819 114.146 19.3092 114.146 19.7455V21.8182C114.146 21.9273 113.818 22.2546 113.381 22.2546Z" fill="white"/>
<path d="M128.564 10.5822L121.792 1.74585C121.355 1.30949 120.809 1.09131 120.263 1.09131C119.717 1.09131 119.171 1.30949 118.734 1.74585C117.969 2.61858 117.969 3.92767 118.734 4.8004L124.086 12.0004L118.734 19.2004C117.969 20.0731 117.969 21.3822 118.734 22.2549C119.171 22.6913 119.717 22.9095 120.263 22.9095C120.809 22.9095 121.355 22.6913 121.792 22.2549L128.564 13.4186C129.329 12.764 129.329 11.4549 128.564 10.5822Z" fill="#FF5A30"/>
<path d="M131.451 10.5822L138.224 1.74585C138.66 1.30949 139.207 1.09131 139.753 1.09131C140.299 1.09131 140.845 1.30949 141.282 1.74585C142.047 2.61858 142.047 3.92767 141.282 4.8004L135.93 12.0004L141.282 19.2004C142.047 20.0731 142.047 21.3822 141.282 22.2549C140.845 22.6913 140.299 22.9095 139.753 22.9095C139.207 22.9095 138.66 22.6913 138.224 22.2549L131.451 13.4186C130.687 12.764 130.687 11.4549 131.451 10.5822Z" fill="#FF5A30"/>
</g>
<defs>
<clipPath id="clip0_276_1491">
<rect width="142" height="24" fill="white"/>
</clipPath>
</defs>
</svg>
